<?xml version="1.0" encoding="UTF-8"?><svg id="Layer_2" xmlns="http://www.w3.org/2000/svg" viewBox="0 0 284.2 155.96"><defs><style>.cls-1{stroke-width:1.2px;}.cls-1,.cls-2{fill:none;stroke:#000;stroke-linecap:round;stroke-linejoin:round;}.cls-2{stroke-width:1.52px;}</style></defs><g id="Layer_2-2"><path d="m209.77,10.66h.01s0,0,0,0h-.01Z"/><path d="m202.44,10.59l-.05.07h.08s-.02-.05-.03-.07Z"/><path d="m27.48,8.5h-.01s-.06-.07-.1-.09l-2.42-1.53v-3.35c0-.4-.32-.72-.72-.72h-5.71L14.33.16c-.23-.15-.53-.15-.76,0l-4.19,2.65H3.83c-.4,0-.72.32-.72.72v3.25l-2.58,1.63s-.07.05-.1.09h-.01c-.25.11-.42.36-.42.65v17.33c0,.39.31.7.69.7h26.52c.38,0,.69-.31.69-.7V9.15c0-.29-.17-.54-.42-.65Zm-2.53,1.34h.8l-.8.52v-.52ZM13.95,1.6l1.91,1.21h-3.82l1.91-1.21ZM4.56,10.93v-6.67h18.95v6.67c0,.11.03.22.08.31l-9.64,6.25-9.52-6.16c.08-.11.13-.25.13-.4Zm-1.45-1.09v.63l-.97-.63h.97Zm23.4,15.95H1.38v-14.77l12.19,7.89c.11.08.24.12.38.12.13,0,.26-.04.38-.12l12.18-7.88v14.76Z"/><path d="m17.64,8.68h-7.39c-.33,0-.6-.27-.6-.6s.27-.6.6-.6h7.39c.33,0,.6.27.6.6s-.27.6-.6.6Z"/><path d="m17.69,10.96h-7.39c-.33,0-.6-.27-.6-.6s.27-.6.6-.6h7.39c.33,0,.6.27.6.6s-.27.6-.6.6Z"/><path d="m17.69,13.23h-7.39c-.33,0-.6-.27-.6-.6s.27-.6.6-.6h7.39c.33,0,.6.27.6.6s-.27.6-.6.6Z"/><circle class="cls-1" cx="78.26" cy="7.11" r="6.51"/><rect class="cls-1" x="65.05" y="13.74" width="26.43" height="12.77" rx="6" ry="6"/><line class="cls-1" x1="134.3" y1="6.15" x2="149.65" y2="6.15"/><line class="cls-1" x1="134.48" y1="13.93" x2="149.84" y2="13.93"/><line class="cls-1" x1="134.48" y1="21.34" x2="149.84" y2="21.34"/><polygon points="209.78 10.66 209.78 10.67 209.77 10.66 209.78 10.66"/><path d="m208.34,24.15h0s1.22,0,1.22,0h0s-1.22,0-1.22,0Zm-5.66,0h0s1.22,0,1.22,0h0s-1.22,0-1.22,0Z"/><path d="m218.51,22.53l-7.98-10.84-.36-.49-.12-.16-.16-.22-.11-.15h-.01s.01-.01.01-.01c.02-.07.04-.13.06-.2.04-.13.08-.26.11-.39.18-.63.27-1.31.27-2.02,0-1.99-.71-3.74-1.8-4.79.08-.24.12-.49.12-.76,0-1.37-1.11-2.49-2.48-2.49s-2.49,1.12-2.49,2.49c0,.3.05.59.15.85-.39.4-.72.89-1,1.45-.07.15-.13.29-.19.44h0c-.06.16-.11.32-.16.48h-9.29c-.34,0-.6.27-.6.6v1.92c0,.33.26.6.6.6h8.99c.03.42.1.83.21,1.21.01.08.04.16.06.24.03.1.06.2.1.3.01.02.02.05.03.07h-.08l-.32.43-.07.09-.4.54h0s-7.97,10.82-7.97,10.82c-.03.01-.06.03-.09.04-.56.26-.94.77-.94,1.36,0,.87.81,1.56,1.81,1.56h8.69c.6,1.03,1.7,1.73,2.98,1.73s2.38-.7,2.98-1.73h8.69c1,0,1.81-.69,1.81-1.56,0-.63-.43-1.17-1.05-1.41Zm-12.45-21.32c.71,0,1.28.58,1.28,1.29h0c-.39-.16-.8-.25-1.22-.25-.47,0-.92.11-1.34.33-.01-.03-.01-.05-.01-.08,0-.71.58-1.29,1.29-1.29Zm-1.61,3.18c.31-.34.67-.59,1.07-.72.19-.07.39-.1.6-.1.18,0,.35.02.52.08.4.11.78.34,1.1.68.77.81,1.28,2.18,1.28,3.72,0,.39-.03.77-.1,1.12-.05.31-.12.61-.21.88h-5.17c-.12-.34-.21-.7-.26-1.09-.04-.29-.06-.6-.06-.91,0-1.51.48-2.84,1.23-3.66Zm-2.58,3.25h-8.2v-.72h8.2v.72Zm1.13,4.65l.09-.11.09-.12.03-.04.22-.3.25-.34.1-.13h4.62l.33.47.22.3.07.09.14.18h0s7.38,10.03,7.38,10.03h-12.11s-8.81-.01-8.81-.01l7.38-10.02Zm3.08,13.73c-.56,0-1.05-.19-1.44-.52h2.88c-.39.33-.88.52-1.44.52Zm11.67-1.89h-23.34c-.12,0-.22-.08-.22-.19,0-.1.1-.18.22-.18h23.34c.12,0,.22.08.22.18,0,.11-.1.19-.22.19Z"/><path d="m200.97,28.07c.08-.07,1.2-1.68,1.2-1.68"/><path d="m200.97,28.67c-.18,0-.35-.08-.47-.23-.19-.24-.17-.58.04-.79.12-.14.66-.91,1.13-1.6.19-.27.56-.34.83-.15.27.19.34.56.15.83-1.17,1.68-1.24,1.74-1.32,1.81-.11.09-.24.13-.37.13Z"/><path d="m210,26.44c.04.1,1.33,1.57,1.33,1.57"/><path d="m211.33,28.62c-.17,0-.33-.07-.45-.21-1.35-1.54-1.38-1.63-1.42-1.72-.13-.3,0-.66.3-.79.28-.13.6-.02.76.24.11.15.72.86,1.27,1.49.22.25.19.63-.06.85-.11.1-.25.15-.39.15Z"/><path d="m206.11,28.07s.01,1.03.01,1.03"/><path d="m206.12,29.69c-.32,0-.59-.26-.6-.58-.03-1.06-.02-1.1,0-1.2.09-.32.41-.51.73-.43.29.08.47.35.44.64,0,.18.02.95.02.95,0,.33-.25.61-.58.62,0,0-.01,0-.02,0Z"/><path d="m283.27,26.27l-8.46-8.46c.26-.41.41-.89.41-1.41,0-1.23-.82-2.26-1.94-2.58.8-1.35,1.26-2.93,1.26-4.61,0-5.02-4.08-9.11-9.1-9.11s-9.1,4.09-9.1,9.11,4.08,9.1,9.1,9.1c1.64,0,3.19-.44,4.52-1.21.31,1.14,1.35,1.97,2.59,1.97.52,0,1-.15,1.41-.41l8.46,8.46c.12.12.27.18.43.18.15,0,.3-.06.42-.18.23-.23.23-.61,0-.85Zm-11.41-12.46c-.15.21-.3.4-.46.59-.27.3-.56.59-.86.84-.18.16-.38.3-.57.44-1.29.91-2.85,1.43-4.53,1.43-4.36,0-7.91-3.54-7.91-7.9s3.55-7.91,7.91-7.91,7.9,3.55,7.9,7.91c0,1.72-.55,3.31-1.48,4.6Z"/><path d="m284.15,91.21l-3.43-7.46c1.02-1.89,1.59-4.05,1.59-6.33,0-7.4-6.02-13.41-13.41-13.41s-13.42,6.01-13.42,13.41,6.02,13.41,13.42,13.41c2.26,0,4.4-.56,6.28-1.56l8.23,2.76c.06.02.13.03.19.03.17,0,.33-.07.45-.2.16-.18.2-.44.1-.65Zm-7.63-2.76l-1.47-.49c-.48.29-.99.54-1.51.75-1.43.59-3,.92-4.64.92-6.74,0-12.22-5.48-12.22-12.21s5.48-12.21,12.22-12.21,12.21,5.48,12.21,12.21c0,1.75-.37,3.42-1.04,4.92-.2.47-.43.92-.7,1.35l.6,1.3,2.51,5.46-5.96-2Z"/><circle cx="262.89" cy="77.83" r="2.21"/><circle cx="268.78" cy="77.83" r="2.21"/><circle cx="274.67" cy="77.83" r="2.21"/><path d="m206.02,63.98c-6.1,0-11.07,4.96-11.07,11.07,0,1.04.14,2.04.41,2.99,0,.02.01.04.02.06.01.03.02.06.03.08.77,2.64,2.49,4.85,4.78,6.28l5.45,7.14c.11.14.29.23.47.23h.01c.18,0,.36-.09.47-.24l5.39-7.21c3.07-1.97,5.11-5.41,5.11-9.33,0-6.11-4.96-11.07-11.07-11.07Zm5.14,19.5h-.02s-1.5,2.03-1.5,2.03l-3.53,4.73-3.57-4.68-1.53-2.01c-2.29-1.36-3.98-3.6-4.6-6.26-.17-.72-.26-1.47-.26-2.24,0-5.44,4.43-9.87,9.87-9.87s9.88,4.43,9.88,9.87c0,.77-.09,1.52-.26,2.24-.61,2.61-2.25,4.83-4.48,6.19Z"/><circle cx="206.07" cy="74.8" r="4.61"/><path d="m142.02,64.04c-3.01,0-5.46,2.45-5.46,5.46v10.09c0,3.01,2.45,5.46,5.46,5.46s5.46-2.45,5.46-5.46v-10.09c0-3.01-2.45-5.46-5.46-5.46Zm-4.26,5.46c0-2.35,1.91-4.26,4.26-4.26s4.26,1.91,4.26,4.26v3.36c-.26,2.11-1.94,3.79-3.94,3.94-2.27.16-4.32-1.63-4.58-4.02v-3.28Zm8.52,10.09c0,2.35-1.91,4.26-4.26,4.26s-4.26-1.91-4.26-4.26v-3.74c1.03,1.32,2.6,2.16,4.29,2.16.12,0,.25,0,.38-.01,1.54-.11,2.92-.93,3.85-2.14v3.73Z"/><path d="m142.67,89.26v1.54h6.52c.33,0,.6.27.6.6s-.27.6-.6.6h-14.16c-.33,0-.6-.27-.6-.6s.27-.6.6-.6h6.44v-1.54c-2.38-.16-4.68-1.14-6.57-2.83-2.38-2.13-3.84-5.22-4-8.47,0-.33.24-.61.57-.63.29-.02.61.24.63.57.15,2.93,1.46,5.72,3.61,7.64,1.98,1.78,4.46,2.68,6.98,2.52,5.03-.31,9.16-4.77,9.4-10.16.02-.33.31-.57.63-.57.33.02.59.3.57.63-.27,5.99-4.9,10.95-10.52,11.3h-.1Z"/><path d="m78.02,91.93h0c-.23,0-.43-.12-.53-.32l-13.88-26.81c-.13-.26-.06-.57.18-.74.24-.17.56-.15.77.05l13.55,12.92,13.46-12.92c.21-.2.54-.22.78-.05.24.17.31.48.18.74l-13.98,26.81c-.1.2-.31.32-.53.32Zm-11.71-24.51l11.71,22.63,11.77-22.57-11.26,10.8c-.23.22-.61.23-.84,0l-11.39-10.86Z"/><path d="m27.41,80.96c-.07-.22-.26-.38-.48-.41l-2.46-.35-1.1-2.23c-.2-.41-.88-.41-1.08,0l-.53,1.07-.29-1.69,1.78-1.73c.16-.16.22-.4.15-.61-.07-.22-.26-.38-.48-.41l-2.46-.36-1.1-2.23c-.1-.2-.31-.33-.54-.33s-.43.13-.54.33l-1.09,2.23h-.06c.09-.12.13-.27.1-.42l-.42-2.45,1.78-1.73c.16-.16.22-.4.15-.62-.07-.21-.26-.37-.49-.41l-2.45-.35-1.1-2.23c-.1-.2-.31-.33-.54-.33s-.44.13-.54.33l-1.1,2.23-2.46.35c-.22.04-.41.2-.48.41-.07.22-.01.46.15.62l1.78,1.73-.42,2.45s0,.04,0,.06l-.92-1.87c-.2-.41-.88-.41-1.08,0l-1.1,2.23-2.45.36c-.23.03-.42.19-.49.41-.07.21-.01.45.15.61l1.78,1.73-.39,2.3-.83-1.68c-.2-.41-.87-.41-1.07,0l-1.1,2.23-2.46.35c-.23.03-.41.19-.49.41-.07.22-.01.46.16.62l1.78,1.73-.42,2.45c-.04.22.05.45.23.58.19.14.43.15.64.05l2.19-1.16,2.2,1.16c.09.04.18.07.28.07.13,0,.25-.04.35-.12.19-.13.28-.36.24-.58l-.42-2.45,1.78-1.73s.03-.04.05-.06c.01.02.02.04.04.06l1.78,1.73-.42,2.45c-.04.22.05.45.24.58.18.14.43.15.63.05l2.2-1.16,2.2,1.16c.08.04.18.07.28.07.12,0,.24-.04.35-.12.18-.13.28-.36.24-.58l-.42-2.45,1.69-1.64,1.68,1.64-.42,2.45c-.04.22.06.45.24.58.11.08.23.12.35.12.1,0,.2-.03.28-.07l2.2-1.16,2.2,1.16c.2.1.45.09.63-.05.19-.13.28-.36.24-.58l-.42-2.45,1.78-1.73c.16-.16.22-.4.15-.62Zm-9.74-5.58c.2-.03.36-.15.45-.33l.7-1.41.7,1.41c.09.18.26.3.45.33l1.57.23-1.13,1.11c-.14.13-.21.33-.17.53l.26,1.56-1.4-.74c-.17-.09-.38-.09-.56,0l-1.4.74.27-1.56c.03-.2-.03-.4-.17-.53l-1.14-1.11,1.57-.23Zm-1.84,4.82h-.03l-1.1-2.23c-.1-.21-.31-.34-.54-.34s-.44.13-.54.34l-.93,1.88s0-.04,0-.05l-.42-2.45,1.78-1.73c.09-.09.15-.2.17-.31.03.11.09.22.18.31l1.77,1.73-.42,2.45c-.02.14.01.28.08.4Zm-2.12-5.6l-1.59-.23,2.04-1.07,2.07,1.08-1.5.22c-.23.03-.42.19-.49.41-.01.04-.02.08-.02.12,0-.04-.01-.08-.02-.12-.07-.22-.26-.38-.49-.41Zm-2.27-4.97l1.57-.23c.19-.03.36-.15.45-.33l.7-1.42.7,1.42c.09.18.26.3.45.33l1.57.23-1.14,1.1c-.14.14-.2.34-.17.53l.27,1.56-1.4-.73c-.18-.1-.39-.1-.56,0l-1.4.73.27-1.56c.03-.19-.04-.39-.18-.53l-1.13-1.1Zm-4.54,5.98l1.57-.23c.19-.03.36-.15.45-.33l.7-1.41.7,1.41c.09.18.26.3.45.33l1.57.23-1.13,1.11c-.15.13-.21.33-.18.53l.27,1.56-1.4-.74c-.09-.05-.18-.07-.28-.07s-.19.02-.28.07l-1.4.74.27-1.56c.03-.2-.03-.4-.18-.53l-1.13-1.11Zm-.1,7.06c-.14.14-.21.34-.17.53l.26,1.56-1.4-.74c-.08-.04-.18-.06-.28-.06-.09,0-.19.02-.28.06l-1.4.74.27-1.56c.03-.19-.03-.39-.17-.53l-1.14-1.11,1.57-.22c.2-.03.37-.15.45-.33l.7-1.42.7,1.42c.09.18.26.3.46.33l1.56.22-1.13,1.11Zm2.89-1.9c-.1-.12-.23-.2-.38-.22l-1.67-.24,1.98-1.03,2,1.05-1.56.22c-.15.02-.28.1-.37.22Zm6.05,1.9c-.14.14-.2.34-.17.53l.27,1.56-1.4-.74c-.18-.09-.39-.09-.56,0l-1.4.74.27-1.56c.03-.19-.04-.39-.18-.53l-1.13-1.11,1.57-.22c.19-.03.36-.15.45-.33l.7-1.42.7,1.42c.09.18.26.3.45.33l1.57.22-1.14,1.11Zm2.75-2.02c-.07-.06-.15-.09-.24-.1l-1.45-.21,2.02-1.06,1.89.99-1.97.28c-.09.01-.18.04-.25.1Zm5.93,2.02c-.14.14-.21.34-.18.53l.27,1.56-1.4-.74c-.09-.04-.18-.06-.28-.06-.09,0-.19.02-.28.06l-1.4.74.27-1.56c.03-.19-.03-.39-.17-.53l-1.14-1.11,1.57-.22c.19-.03.36-.15.45-.33l.7-1.42.7,1.42c.09.18.26.3.45.33l1.57.22-1.13,1.11Z"/><path d="m22.21,145.32h-2.7c1.27-.98,2.1-2.52,2.1-4.25,0-.38-.04-.75-.12-1.11l2.82-2.74c.16-.16.22-.4.15-.62-.07-.21-.26-.37-.48-.41l-7.56-1.09-3.38-6.85c-.2-.41-.88-.41-1.08,0l-3.38,6.85-7.56,1.09c-.22.04-.41.2-.48.41-.07.22-.01.46.15.62l4.15,4.04c-.19.46-.28.97-.28,1.5,0,1.1.4,2.11,1.07,2.87.12.14.25.27.39.38h-1.04c-2.38,0-4.31,1.93-4.31,4.31s1.93,4.3,4.31,4.3h2.28c.78.77,1.84,1.24,3.02,1.24h11.93c2.37,0,4.31-1.93,4.31-4.3v-1.94c0-2.37-1.94-4.3-4.31-4.3Zm.39-8.11l-1.54,1.5c-.39-.79-.96-1.46-1.65-1.96l3.19.46Zm-2.46,2.4c.17.44.26.91.27,1.41v.05c0,1.19-.5,2.26-1.31,3.02-.32.3-.69.55-1.09.74-.53.26-1.13.4-1.76.4-1.23,0-2.33-.53-3.08-1.38-.68-.74-1.08-1.72-1.08-2.78,0-.4.06-.78.17-1.15.49-1.74,2.09-3.01,3.99-3.01,1.78,0,3.3,1.12,3.89,2.7Zm-7.16,5.71h-.5c.07-.08.13-.17.18-.27.1.1.21.19.32.27Zm-7.55-5.16l-3.03-2.95,6.67-.97c.19-.03.36-.15.45-.33l2.98-6.04,2.92,5.91c-1.89.29-3.46,1.57-4.15,3.29-.67-.43-1.47-.68-2.33-.68-1.44,0-2.72.7-3.51,1.77Zm1.1,7.37c-.35.62-.55,1.33-.55,2.09v1.94c0,.67.15,1.3.43,1.86h-1.43c-1.72,0-3.11-1.39-3.11-3.1s1.39-3.11,3.11-3.11h1.74c-.07.1-.14.21-.19.32Zm-.59-3.72c-.12-.33-.18-.68-.18-1.05,0-.19.02-.37.06-.55.07-.44.24-.85.47-1.21.58-.85,1.55-1.41,2.65-1.41.75,0,1.45.27,2,.72-.04.25-.06.5-.06.76,0,1.12.34,2.16.93,3.02-.22.49-.56.91-.99,1.23-.52.39-1.18.62-1.88.62-.25,0-.49-.03-.73-.09-.48-.11-.92-.33-1.29-.64-.44-.36-.78-.84-.98-1.4Zm19.38,7.75c0,1.71-1.4,3.1-3.11,3.1h-11.93c-.16,0-.32,0-.47-.04-.82-.12-1.53-.56-2-1.2-.4-.52-.63-1.16-.63-1.86v-1.94c0-.4.08-.79.23-1.14.19-.51.51-.94.93-1.27.04-.03.08-.06.12-.09.51-.38,1.14-.6,1.82-.6h11.93c1.71,0,3.11,1.39,3.11,3.1v1.94Z"/><path d="m90.08,146.97c-.23-.18-.45-.38-.64-.6-.08-.08-.15-.16-.22-.25-.87-1.05-1.39-2.39-1.39-3.85,0-.06,0-.12,0-.18.27-.74.45-1.51.54-2.32.04-.37.06-.75.06-1.14,0-.2-.01-.4-.01-.6-.01-.16-.02-.33-.04-.49-.55-5.24-4.99-9.33-10.37-9.33s-9.82,4.1-10.36,9.35c-.01.14-.02.29-.03.43-.01.21-.02.43-.02.64,0,.4.02.78.07,1.17.09.79.26,1.55.52,2.27,0,.07,0,.13,0,.2,0,1.47-.53,2.82-1.41,3.87-.06.08-.13.16-.2.23-.2.23-.42.43-.66.62-.08.06-.16.12-.24.18.2.25.41.5.63.74.05.06.11.12.16.17,2.33,2.46,5.44,4.17,8.93,4.76-.02.12-.03.25-.03.38,0,1.5,1.22,2.72,2.72,2.72s2.73-1.22,2.73-2.72c0-.14,0-.28-.04-.42,3.41-.6,6.46-2.3,8.75-4.72.07-.06.12-.12.18-.18.21-.24.41-.48.61-.74-.09-.05-.18-.12-.26-.19Zm-10.44,6.25c0,.84-.68,1.52-1.53,1.52s-1.52-.68-1.52-1.52c0-.08.01-.16.02-.23.46.04.93.06,1.41.06.54,0,1.07-.03,1.6-.08.01.08.02.16.02.25Zm.71-1.56c-.52.09-1.05.15-1.6.17-.24.01-.48.02-.73.02-.19,0-.37,0-.55,0-.55-.02-1.09-.07-1.62-.15-3.3-.5-6.26-2.1-8.46-4.41.07-.07.13-.13.19-.2.75-.84,1.31-1.86,1.59-2.99.04-.15.07-.31.1-.46.1-.44.14-.89.14-1.36,0-.14,0-.28-.01-.41-.29-.75-.47-1.55-.55-2.38-.03-.28-.04-.56-.04-.85,0-5.09,4.13-9.22,9.21-9.22s9.22,4.13,9.22,9.22c0,.28-.01.56-.04.83-.07.85-.26,1.66-.56,2.42-.01.13-.01.26-.01.39,0,.45.04.89.13,1.32.03.18.07.36.11.53.29,1.11.84,2.11,1.57,2.94.07.08.13.15.21.22-2.17,2.28-5.05,3.87-8.3,4.38Z"/><path d="m154,153.19c.24.23.24.61,0,.85-.11.12-.27.17-.42.17s-.31-.05-.42-.17l-10.89-10.89-10.88,10.89c-.12.12-.27.17-.43.17-.15,0-.3-.05-.42-.17-.24-.24-.24-.62,0-.85l10.89-10.88-10.89-10.89c-.24-.23-.24-.61,0-.85s.61-.23.85,0l10.88,10.89,10.89-10.89c.23-.23.61-.23.84,0,.24.24.24.62,0,.85l-10.88,10.89,10.88,10.88Z"/><path d="m219.04,154.09h-26.04c-.21,0-.41-.11-.52-.29-.11-.18-.11-.41-.01-.59l13.02-23.9c.21-.39.84-.39,1.05,0l13.02,23.9c.1.19.1.41-.01.59-.11.18-.3.29-.52.29Zm-25.03-1.2h24.02l-12.01-22.05-12.01,22.05Z"/><path d="m204.58,150.22c0-.88.61-1.52,1.45-1.52.88,0,1.45.64,1.45,1.52s-.56,1.52-1.45,1.52-1.45-.66-1.45-1.52Zm.61-3.51l-.34-11.78h2.36l-.34,11.78h-1.67Z"/><polyline class="cls-2" points="277.59 138.64 278.59 138.64 282.48 138.64 282.48 155.2 257.67 155.2 257.67 138.64 261.57 138.64 262.57 138.64"/><path d="m277.07,134.88h-1.68l-.79-.79-1-1-2.98-2.98v15.53c0,.33-.27.6-.6.6-.16,0-.32-.07-.42-.18-.11-.11-.18-.26-.18-.42v-15.52l-2.97,2.97-1,1-.79.79h-1.69s.03-.04.04-.06l1.73-1.73,4.86-4.85s.07-.06.11-.08c.06-.05.13-.07.19-.08.04-.01.08-.01.12-.01.17,0,.32.07.43.17l4.84,4.85,1.73,1.73s.04.03.05.06Z"/><path d="m275.29,133.09h-1.69l1,1h1.69l-1-1Zm-5.87,7.51v1h1.2v-1h-1.2Zm-4.68-7.51l-1,1h1.71l1-1h-1.71Zm4.68,0v1h1.2v-1h-1.2Z"/></g></svg>